<svg width="30" height="41" viewBox="0 0 30 41" fill="none" xmlns="http://www.w3.org/2000/svg">
<g clip-path="url(#clip0_57_307)">
<path d="M26.7474 23.7521L15.0096 39.4694L3.27185 23.7521C-1.06604 17.9435 -0.474908 9.84092 4.66099 4.71969C7.51884 1.86997 11.2635 0.445312 15.0096 0.445312C18.7557 0.445312 22.5003 1.86991 25.3582 4.71968C28.194 7.54734 29.6443 11.2837 29.6443 15.0418C29.6443 18.0897 28.6903 21.1508 26.7474 23.7521Z" fill="#4886F9"/>
<path d="M4.66099 4.71969C-0.474908 9.84092 -1.06604 17.9435 3.27185 23.7521L15.0096 39.4694L26.7474 23.7521C28.6903 21.1508 29.6443 18.0897 29.6443 15.0418C29.6443 11.2837 28.194 7.54734 25.3582 4.71968M4.66099 4.71969L4.40303 4.46099M4.66099 4.71969C7.51884 1.86997 11.2635 0.445312 15.0096 0.445312C18.7557 0.445312 22.5003 1.86991 25.3582 4.71968M25.3582 4.71968L25.6107 4.46648" stroke="white" stroke-width="0.730673"/>
<path d="M15.1922 21.1754C18.7987 21.1754 21.7223 18.2518 21.7223 14.6453C21.7223 11.0389 18.7987 8.11523 15.1922 8.11523C11.5857 8.11523 8.66211 11.0389 8.66211 14.6453C8.66211 18.2518 11.5857 21.1754 15.1922 21.1754Z" fill="white"/>
</g>
<defs>
<clipPath id="clip0_57_307">
<rect width="30" height="41" fill="white"/>
</clipPath>
</defs>
</svg>
